<?xml version="1.0" encoding="UTF-8"?> <!-- Generator: Adobe Illustrator 17.1.0, SVG Export Plug-In . SVG Version: 6.00 Build 0) --> <svg xmlns="http://www.w3.org/2000/svg" xmlns:xlink="http://www.w3.org/1999/xlink" id="_x3F__x3F__x3F__x3F__1" x="0px" y="0px" width="895.679px" height="304.786px" viewBox="0 0 895.679 304.786" xml:space="preserve"> <g> <path fill-rule="evenodd" clip-rule="evenodd" fill="#304196" d="M202.717,209.207h-19.293c1.207-0.932,9.718-9.297,9.669-26.827 c-0.052-18.775-11.709-22.37-13.741-47.706h19.294c2.032,25.336,13.689,28.931,13.741,47.706 C212.436,199.909,203.924,208.275,202.717,209.207L202.717,209.207z M164.131,209.207h-19.293c1.207-0.932,9.719-9.297,9.67-26.827 c-0.052-18.775-11.709-22.37-13.742-47.706h19.294c2.032,25.336,13.689,28.931,13.742,47.706 C173.85,199.909,165.337,208.275,164.131,209.207L164.131,209.207z M125.544,209.207h-19.293c1.207-0.932,9.718-9.297,9.67-26.827 c-0.053-18.775-11.708-22.37-13.741-47.706h19.293c2.032,25.336,13.688,28.931,13.74,47.706 C135.263,199.909,126.751,208.275,125.544,209.207z"></path> <path fill-rule="evenodd" clip-rule="evenodd" fill="#CC1F3C" d="M140.521,123.94c0.357-9.716,2.436-18.393,5.085-25.622H164.9 c-2.649,7.229-4.729,15.906-5.086,25.622H140.521z"></path> <path fill-rule="evenodd" clip-rule="evenodd" fill="#304196" d="M101.935,123.94c0.954-25.939,14.19-44.488,17.733-47.781h19.293 c-3.542,3.293-16.779,21.842-17.733,47.781H101.935z"></path> <path fill-rule="evenodd" clip-rule="evenodd" fill="#304196" d="M0,110.512l73.693-55.256l24.609,32.836 c-1.578,3.478-3.085,7.428-4.334,11.78l-21.374-28.49l-56.875,42.646l76.312,102.528c-0.134,0.201-0.267,0.402-0.4,0.604 l0.873,0.032l53.194,71.469l56.875-42.645l-19.217-25.819h13.102l21.834,29.336l-73.693,55.255L0,110.512z"></path> <path fill-rule="evenodd" clip-rule="evenodd" fill="#CC1F3C" d="M147.386,0L73.693,55.256l24.609,32.837 c1.848-4.075,3.793-7.503,5.528-10.176L89.412,58.772l56.875-42.646l129.979,174.632l-56.875,42.646l-9.832-13.209h-13.101 l21.834,29.336l73.693-55.256L147.386,0z"></path> </g> <g> <path fill-rule="evenodd" clip-rule="evenodd" fill="#304196" d="M360.071,39.333C379.562,41.45,389.3,50.508,389.3,66.506 c0,16.338-9.738,25.428-29.229,27.267v6.878h-18.028v-7.063c-19.461-1.716-29.184-10.743-29.184-27.081 c0-16.029,9.723-25.087,29.184-27.174v-5.07h18.028V39.333L360.071,39.333z M360.071,79.861c3.121-0.927,5.541-2.597,7.259-4.993 c1.718-2.411,2.584-5.286,2.584-8.641c0-3.2-0.882-6.075-2.644-8.625c-1.763-2.55-4.167-4.328-7.199-5.364V79.861L360.071,79.861z M342.042,80.047V52.61c-2.942,0.865-5.332,2.597-7.139,5.178c-1.808,2.582-2.704,5.518-2.704,8.811 c0,3.076,0.896,5.843,2.688,8.285C336.681,77.327,339.071,79.058,342.042,80.047L342.042,80.047z M453.297,89.692h-22.584 l-3.107,10.959h-20.253l24.106-66.389h21.612l24.122,66.389h-20.746L453.297,89.692L453.297,89.692z M449.145,75.332l-7.095-23.866 L435,75.332H449.145L449.145,75.332z M518.264,59.844h10.59c9.708,0,16.907,1.778,21.612,5.333c4.69,3.54,7.035,9.059,7.035,16.539 c0,6.137-2.151,10.82-6.453,14.066c-4.302,3.246-10.47,4.869-18.521,4.869h-34.054V34.262h54.009V47.71h-34.219V59.844 L518.264,59.844z M518.264,86.385h10.142c6.214,0,9.32-2.319,9.32-6.972c0-4.081-3.106-6.121-9.32-6.121h-10.142V86.385 L518.264,86.385z M582.873,34.262h32.948c7.169,0,12.546,1.762,16.116,5.302c3.569,3.524,5.362,8.563,5.362,15.071 c0,6.709-1.942,11.948-5.84,15.72c-3.899,3.771-9.843,5.657-17.834,5.657h-10.844v24.639h-19.909V34.262L582.873,34.262z M602.783,62.565h4.854c3.823,0,6.497-0.68,8.051-2.056c1.538-1.376,2.314-3.138,2.314-5.271c0-2.087-0.672-3.864-2.016-5.302 c-1.33-1.453-3.854-2.179-7.559-2.179h-5.646V62.565L602.783,62.565z M723.924,34.262v66.389h-18.64V64.203l-24.032,36.448h-18.685 V34.262h18.685v36.727l24.166-36.727H723.924L723.924,34.262z M810.37,100.651h-22.314l-7.707-17.157 c-1.837-4.05-3.271-6.585-4.287-7.59c-1.03-1.02-2.434-1.515-4.241-1.515v26.262h-19.79V34.262h19.79v25.489 c1.718-0.078,3.061-0.711,4.018-1.901c0.971-1.175,2.465-4.545,4.511-10.141c1.494-4.127,2.987-7.095,4.511-8.888 c1.509-1.809,3.973-3.091,7.393-3.88c3.405-0.789,8.768-1.174,16.056-1.174v14.035h-1c-3.391,0-5.9,0.665-7.528,1.994 c-1.643,1.33-2.972,3.478-4.032,6.446c-1.046,2.983-2.181,5.194-3.391,6.662c-1.21,1.468-2.868,2.643-4.959,3.509 c2.853,0.974,5.347,2.643,7.482,5.008c2.121,2.365,4.392,6.059,6.781,11.067L810.37,100.651L810.37,100.651z M871.783,89.692 h-22.584l-3.106,10.959h-20.253l24.107-66.389h21.612l24.121,66.389h-20.745L871.783,89.692L871.783,89.692z M867.629,75.332 l-7.094-23.866l-7.05,23.866H867.629z"></path> <path fill-rule="evenodd" clip-rule="evenodd" fill="#CC2128" d="M388.133,203.594h-15.967v-14.453h-40.955v14.453h-15.936v-29.755 h6.617c3.704-10.728,5.557-22.815,5.557-36.278v-14.809h53.77v51.087h6.915V203.594L388.133,203.594z M361.398,173.839V139.06 h-15.922v0.85c0,9.182-1.509,20.497-4.511,33.929H361.398L361.398,173.839z M413.962,148.334h10.59 c9.708,0,16.907,1.778,21.612,5.333c4.691,3.54,7.035,9.058,7.035,16.54c0,6.137-2.15,10.82-6.452,14.066 c-4.302,3.246-10.471,4.869-18.52,4.869h-34.055v-66.39h19.79V148.334L413.962,148.334z M413.962,174.874h10.142 c6.214,0,9.32-2.319,9.32-6.971c0-4.08-3.106-6.121-9.32-6.121h-10.142V174.874L413.962,174.874z M458.054,122.752h19.864v66.39 h-19.864V122.752L458.054,122.752z M575.605,189.142h-86.3v-66.39h19.79v50.082h13.338v-50.082h19.82v50.082h13.531v-50.082h19.82 V189.142L575.605,189.142z M626.318,178.182h-22.583l-3.106,10.96h-20.253l24.106-66.39h21.612l24.121,66.39H629.47 L626.318,178.182L626.318,178.182z M622.167,163.823l-7.095-23.867l-7.05,23.867H622.167L622.167,163.823z M747.977,203.594 h-15.936v-14.453h-77.234v-66.39h19.79v50.082h13.338v-50.082h19.82v50.082h13.532v-50.082h19.82v51.087h6.87V203.594 L747.977,203.594z M816.285,122.752v66.39h-18.64v-36.448l-24.032,36.448h-18.686v-66.39h18.686v36.727l24.166-36.727H816.285 L816.285,122.752z M823.295,122.752h21.821l11.381,20.42l11.023-20.42h21.627l-19.954,32.152l21.837,34.238h-22.27l-12.651-21.331 l-12.695,21.331h-22.135l22.135-34.593L823.295,122.752z"></path> <path fill-rule="evenodd" clip-rule="evenodd" fill="#304196" d="M315.225,247.933c0-10.835,2.927-19.275,8.752-25.304 c5.839-6.044,13.965-9.058,24.376-9.058c10.68,0,18.909,2.968,24.688,8.903c5.766,5.92,8.664,14.236,8.664,24.917 c0,7.759-1.27,14.127-3.794,19.089c-2.524,4.962-6.169,8.826-10.934,11.593c-4.779,2.767-10.709,4.143-17.833,4.143 c-7.23,0-13.219-1.19-17.968-3.571c-4.735-2.396-8.574-6.168-11.531-11.33C316.704,262.154,315.225,255.693,315.225,247.933 L315.225,247.933z M335.06,248.026c0,6.708,1.194,11.515,3.6,14.452c2.404,2.921,5.69,4.39,9.827,4.39 c4.258,0,7.559-1.438,9.889-4.297c2.329-2.875,3.51-8.022,3.51-15.442c0-6.26-1.225-10.82-3.66-13.71 c-2.434-2.876-5.735-4.313-9.917-4.313c-3.987,0-7.199,1.453-9.619,4.39C336.27,236.417,335.06,241.271,335.06,248.026 L335.06,248.026z M550.774,281.089h-22.314l-7.707-17.158c-1.837-4.05-3.271-6.585-4.287-7.59c-1.03-1.02-2.434-1.515-4.241-1.515 v26.262h-19.79V214.7h19.79v25.489c1.718-0.077,3.061-0.711,4.018-1.901c0.971-1.175,2.465-4.545,4.511-10.14 c1.494-4.127,2.987-7.095,4.511-8.888c1.509-1.808,3.973-3.091,7.393-3.879c3.405-0.789,8.768-1.175,16.056-1.175v14.035h-1 c-3.391,0-5.9,0.665-7.528,1.994c-1.643,1.33-2.972,3.478-4.032,6.446c-1.046,2.983-2.181,5.194-3.391,6.663 c-1.21,1.468-2.868,2.643-4.959,3.508c2.853,0.974,5.347,2.643,7.483,5.008c2.12,2.365,4.391,6.059,6.78,11.068L550.774,281.089 L550.774,281.089z M655.424,247.933c0-10.835,2.927-19.275,8.752-25.304c5.84-6.044,13.966-9.058,24.376-9.058 c10.679,0,18.909,2.968,24.689,8.903c5.766,5.92,8.663,14.236,8.663,24.917c0,7.759-1.27,14.127-3.794,19.089 c-2.523,4.962-6.168,8.826-10.933,11.593c-4.78,2.767-10.709,4.143-17.833,4.143c-7.229,0-13.219-1.19-17.969-3.571 c-4.734-2.396-8.573-6.168-11.53-11.33C656.903,262.154,655.424,255.693,655.424,247.933L655.424,247.933z M675.259,248.026 c0,6.708,1.194,11.515,3.6,14.452c2.404,2.921,5.69,4.39,9.827,4.39c4.258,0,7.559-1.438,9.889-4.297 c2.329-2.875,3.51-8.022,3.51-15.442c0-6.26-1.225-10.82-3.66-13.71c-2.435-2.876-5.735-4.313-9.917-4.313 c-3.988,0-7.199,1.453-9.619,4.39C676.469,236.417,675.259,241.271,675.259,248.026L675.259,248.026z M832.722,214.7h19.82v23.233 h21.673V214.7h19.909v66.39h-19.909v-26.85h-21.673v26.85h-19.82V214.7z"></path> </g> </svg> 